<svg width="32" height="32" viewBox="0 0 32 32" fill="none" xmlns="http://www.w3.org/2000/svg">
<path d="M23.9999 23.2727V11.6364H12.3635V10.9091C12.3635 9.70619 13.3425 8.72728 14.5454 8.72728H16.7272V4.36365H14.5454C12.81 4.36557 11.1463 5.0558 9.91916 6.28289C8.69206 7.50999 8.00184 9.17373 7.99991 10.9091V11.6364H5.09082V16H7.99991V23.2727H5.09082V27.6364H15.2726V23.2727H12.3635V16H19.677V23.2727H16.7272V27.6364H26.909V23.2727H23.9999Z" fill="#CCA035"/>
<path d="M21.818 8.72728C23.023 8.72728 23.9999 7.75045 23.9999 6.54547C23.9999 5.34048 23.023 4.36365 21.818 4.36365C20.6131 4.36365 19.6362 5.34048 19.6362 6.54547C19.6362 7.75045 20.6131 8.72728 21.818 8.72728Z" fill="#CCA035"/>
</svg>
