<?xml version="1.0" standalone="no"?>
<!DOCTYPE svg PUBLIC "-//W3C//DTD SVG 20010904//EN"
 "http://www.w3.org/TR/2001/REC-SVG-20010904/DTD/svg10.dtd">
<svg version="1.0" xmlns="http://www.w3.org/2000/svg"
 width="194.000000pt" height="194.000000pt" viewBox="0 0 194.000000 194.000000"
 preserveAspectRatio="xMidYMid meet">
<metadata>
Created by potrace 1.14, written by Peter Selinger 2001-2017
</metadata>
<g transform="translate(0.000000,194.000000) scale(0.100000,-0.100000)"
fill="#000000" stroke="none">
<path d="M941 1656 c-12 -12 -21 -27 -21 -34 0 -10 -25 -19 -105 -38 -46 -10
-149 -59 -198 -93 -139 -96 -244 -268 -264 -431 -2 -25 -6 -54 -8 -65 -2 -11
-4 -23 -4 -27 -1 -4 -25 -23 -55 -42 -67 -45 -153 -135 -162 -170 -10 -40 14
-84 55 -106 29 -14 58 -18 137 -17 112 0 140 -10 183 -66 75 -100 259 -199
387 -210 48 -4 49 -6 55 -41 3 -20 11 -42 18 -49 17 -17 42 13 43 51 1 25 6
32 22 33 70 2 189 41 264 86 35 21 99 72 142 115 87 85 76 81 215 79 39 0 86
5 105 12 46 16 80 66 71 107 -7 36 -101 136 -166 177 -47 29 -55 43 -61 102
-14 157 -70 277 -184 391 -85 87 -176 138 -300 169 -61 15 -78 24 -92 47 -25
41 -51 48 -77 20z"/>
</g>
</svg>
